<?xml version="1.0" encoding="UTF-8"?>
<svg width="128" height="128" viewBox="0 0 128 128" xmlns="http://www.w3.org/2000/svg">
  <!-- 背景圆形 -->
  <circle cx="64" cy="64" r="60" fill="#409eff" stroke="#337ecc" stroke-width="2"/>
  
  <!-- 翻译图标主体 -->
  <g transform="translate(64, 64)">
    <!-- 左侧文档 -->
    <rect x="-35" y="-25" width="25" height="35" rx="3" fill="white" opacity="0.9"/>
    <line x1="-32" y1="-20" x2="-13" y2="-20" stroke="#409eff" stroke-width="2"/>
    <line x1="-32" y1="-15" x2="-18" y2="-15" stroke="#409eff" stroke-width="1.5"/>
    <line x1="-32" y1="-10" x2="-15" y2="-10" stroke="#409eff" stroke-width="1.5"/>
    
    <!-- 右侧文档 -->
    <rect x="10" y="-25" width="25" height="35" rx="3" fill="white" opacity="0.9"/>
    <line x1="13" y1="-20" x2="32" y2="-20" stroke="#409eff" stroke-width="2"/>
    <line x1="18" y1="-15" x2="32" y2="-15" stroke="#409eff" stroke-width="1.5"/>
    <line x1="15" y1="-10" x2="32" y2="-10" stroke="#409eff" stroke-width="1.5"/>
    
    <!-- 中间箭头 -->
    <path d="M -8 -7 L 8 -7 L 3 -12 M 8 -7 L 3 -2" stroke="white" stroke-width="3" fill="none" stroke-linecap="round" stroke-linejoin="round"/>
    
    <!-- AI标识 -->
    <circle cx="0" cy="15" r="12" fill="white" opacity="0.9"/>
    <text x="0" y="20" text-anchor="middle" font-family="Arial, sans-serif" font-size="10" font-weight="bold" fill="#409eff">AI</text>
  </g>
  
  <!-- 装饰性元素 -->
  <circle cx="25" cy="25" r="3" fill="white" opacity="0.6"/>
  <circle cx="103" cy="35" r="2" fill="white" opacity="0.4"/>
  <circle cx="20" cy="100" r="2.5" fill="white" opacity="0.5"/>
</svg>